<svg width="1200" height="900" viewBox="0 0 1200 900" fill="none" xmlns="http://www.w3.org/2000/svg">
  <defs>
    <linearGradient id="bg" x1="120" y1="80" x2="1080" y2="840" gradientUnits="userSpaceOnUse">
      <stop stop-color="#CFC3B0"/>
      <stop offset="0.52" stop-color="#F3E4D0"/>
      <stop offset="1" stop-color="#F7F5F1"/>
    </linearGradient>
    <linearGradient id="skin" x1="320" y1="230" x2="600" y2="700" gradientUnits="userSpaceOnUse">
      <stop stop-color="#A06D4A"/>
      <stop offset="1" stop-color="#7E5034"/>
    </linearGradient>
    <linearGradient id="accent" x1="720" y1="180" x2="1020" y2="780" gradientUnits="userSpaceOnUse">
      <stop stop-color="#F2B37A"/>
      <stop offset="1" stop-color="#D48C54"/>
    </linearGradient>
    <filter id="shadow" x="0" y="0" width="1200" height="900" filterUnits="userSpaceOnUse">
      <feDropShadow dx="0" dy="18" stdDeviation="24" flood-color="#3D2D7D" flood-opacity="0.18"/>
    </filter>
  </defs>
  <rect width="1200" height="900" rx="48" fill="url(#bg)"/>
  <circle cx="140" cy="170" r="92" fill="#F8EFE2" opacity="0.65">
    <animate attributeName="r" values="92;112;92" dur="6s" repeatCount="indefinite"/>
  </circle>
  <circle cx="1030" cy="160" r="84" fill="#FFFFFF" opacity="0.45">
    <animate attributeName="cy" values="160;138;160" dur="5s" repeatCount="indefinite"/>
  </circle>
  <rect x="240" y="430" width="360" height="240" rx="36" fill="#2F5126" opacity="0.92" filter="url(#shadow)"/>
  <path d="M258 492C315 448 398 440 456 470C514 500 540 548 566 614L258 614V492Z" fill="#5A8A43" opacity="0.9"/>
  <ellipse cx="412" cy="565" rx="98" ry="90" fill="#D9A07D"/>
  <path d="M350 500C367 462 402 442 437 444C470 446 503 464 517 494C531 524 530 559 520 596C490 604 455 609 421 607C392 606 362 598 340 584C338 554 343 523 350 500Z" fill="url(#skin)"/>
  <ellipse cx="424" cy="572" rx="48" ry="50" fill="#EAB28B"/>
  <path d="M383 539C388 521 400 510 417 504" stroke="#2B1C15" stroke-width="6" stroke-linecap="round"/>
  <path d="M438 539C446 521 461 510 478 504" stroke="#2B1C15" stroke-width="6" stroke-linecap="round"/>
  <path d="M401 596C414 612 436 612 451 596" stroke="#2B1C15" stroke-width="6" stroke-linecap="round"/>
  <circle cx="472" cy="566" r="34" fill="#F2C48B"/>
  <rect x="660" y="352" width="304" height="282" rx="40" fill="#FFFFFF" opacity="0.72"/>
  <rect x="705" y="388" width="214" height="22" rx="11" fill="#E9DCC9"/>
  <rect x="705" y="436" width="188" height="16" rx="8" fill="#D3C0AC"/>
  <rect x="705" y="474" width="166" height="16" rx="8" fill="#D3C0AC"/>
  <rect x="705" y="512" width="142" height="16" rx="8" fill="#D3C0AC"/>
  <rect x="705" y="562" width="116" height="22" rx="11" fill="#F0B56F"/>
  <path d="M752 620C780 590 821 576 866 582C909 588 943 610 962 646" stroke="url(#accent)" stroke-width="16" stroke-linecap="round"/>
  <circle cx="874" cy="250" r="22" fill="#6A45F0">
    <animate attributeName="r" values="22;30;22" dur="4.5s" repeatCount="indefinite"/>
  </circle>
  <path d="M874 212V288" stroke="#6A45F0" stroke-width="10" stroke-linecap="round">
    <animate attributeName="d" values="M874 212V288;M874 202V298;M874 212V288" dur="4.5s" repeatCount="indefinite"/>
  </path>
  <path d="M836 250H912" stroke="#6A45F0" stroke-width="10" stroke-linecap="round">
    <animate attributeName="stroke-width" values="10;14;10" dur="4.5s" repeatCount="indefinite"/>
  </path>
</svg>