<svg width="1200" height="900" viewBox="0 0 1200 900" fill="none" xmlns="http://www.w3.org/2000/svg">
  <defs>
    <linearGradient id="bg" x1="100" y1="120" x2="1080" y2="820" gradientUnits="userSpaceOnUse">
      <stop stop-color="#CADCE5"/>
      <stop offset="0.55" stop-color="#EEF5F9"/>
      <stop offset="1" stop-color="#FCFDFE"/>
    </linearGradient>
    <filter id="shadow" x="0" y="0" width="1200" height="900" filterUnits="userSpaceOnUse">
      <feDropShadow dx="0" dy="18" stdDeviation="24" flood-color="#223C4D" flood-opacity="0.14"/>
    </filter>
  </defs>
  <rect width="1200" height="900" rx="48" fill="url(#bg)"/>
  <rect x="112" y="140" width="966" height="650" rx="48" fill="#FFFFFF" opacity="0.2" filter="url(#shadow)"/>
  <rect x="266" y="314" width="278" height="314" rx="40" fill="#DDE7EB"/>
  <rect x="290" y="340" width="232" height="60" rx="20" fill="#B8C8D0"/>
  <rect x="286" y="426" width="210" height="18" rx="9" fill="#C7D4DB"/>
  <rect x="286" y="462" width="176" height="18" rx="9" fill="#C7D4DB"/>
  <rect x="286" y="508" width="140" height="18" rx="9" fill="#C7D4DB"/>
  <rect x="668" y="314" width="252" height="314" rx="40" fill="#F8FBFD"/>
  <path d="M694 542C744 500 800 480 858 486" stroke="#6A45F0" stroke-width="18" stroke-linecap="round"/>
  <path d="M706 578C764 536 820 516 896 512" stroke="#5EB4E7" stroke-width="18" stroke-linecap="round"/>
  <circle cx="486" cy="472" r="68" fill="#E6A884"/>
  <circle cx="486" cy="464" r="44" fill="#A97155"/>
  <rect x="442" y="504" width="88" height="88" rx="28" fill="#F0C3AA"/>
  <circle cx="836" cy="398" r="20" fill="#6A45F0">
    <animate attributeName="cy" values="398;380;398" dur="4.2s" repeatCount="indefinite"/>
  </circle>
  <circle cx="878" cy="452" r="12" fill="#5EB4E7" opacity="0.8">
    <animate attributeName="r" values="12;20;12" dur="4.2s" repeatCount="indefinite"/>
  </circle>
  <circle cx="832" cy="536" r="10" fill="#6A45F0" opacity="0.4"/>
</svg>