<svg width="1200" height="900" viewBox="0 0 1200 900" fill="none" xmlns="http://www.w3.org/2000/svg">
  <defs>
    <linearGradient id="bg" x1="100" y1="120" x2="1080" y2="820" gradientUnits="userSpaceOnUse">
      <stop stop-color="#CADCE5"/>
      <stop offset="0.55" stop-color="#EEF5F9"/>
      <stop offset="1" stop-color="#FCFDFE"/>
    </linearGradient>
    <filter id="shadow" x="0" y="0" width="1200" height="900" filterUnits="userSpaceOnUse">
      <feDropShadow dx="0" dy="18" stdDeviation="24" flood-color="#223C4D" flood-opacity="0.14"/>
    </filter>
  </defs>
  <rect width="1200" height="900" rx="48" fill="url(#bg)"/>
  <rect x="112" y="140" width="966" height="650" rx="56" fill="#FFFFFF" opacity="0.2" filter="url(#shadow)"/>

  <g>
    <circle cx="360" cy="350" r="62" fill="#42322A"/>
    <circle cx="360" cy="366" r="48" fill="#F2C5A3"/>
    <rect x="304" y="416" width="112" height="198" rx="38" fill="#DDE7EB"/>
    <rect x="276" y="444" width="44" height="130" rx="22" fill="#F2C5A3"/>
    <rect x="400" y="444" width="44" height="130" rx="22" fill="#F2C5A3"/>
    <path d="M344 386C352 380 368 380 376 386" stroke="#2B1C15" stroke-width="6" stroke-linecap="round"/>
    <path d="M346 406C356 416 364 416 374 406" stroke="#2B1C15" stroke-width="6" stroke-linecap="round"/>
  </g>

  <g>
    <rect x="520" y="280" width="300" height="300" rx="42" fill="#F8FBFD"/>
    <rect x="552" y="316" width="236" height="24" rx="12" fill="#C7D4DB"/>
    <rect x="552" y="358" width="198" height="18" rx="9" fill="#D3DDE2"/>
    <rect x="552" y="396" width="214" height="18" rx="9" fill="#D3DDE2"/>
    <rect x="552" y="448" width="150" height="24" rx="12" fill="#6A45F0"/>
    <path d="M560 520C610 480 666 462 724 468" stroke="#6A45F0" stroke-width="16" stroke-linecap="round"/>
    <path d="M560 548C620 506 676 488 752 486" stroke="#5EB4E7" stroke-width="16" stroke-linecap="round"/>
  </g>

  <g>
    <rect x="860" y="320" width="180" height="280" rx="36" fill="#E6EEF2"/>
    <circle cx="950" cy="402" r="48" fill="#6A45F0" opacity="0.15"/>
    <circle cx="950" cy="402" r="26" fill="#6A45F0"/>
    <path d="M938 402H962" stroke="white" stroke-width="8" stroke-linecap="round"/>
    <path d="M950 390V414" stroke="white" stroke-width="8" stroke-linecap="round"/>
  </g>

  <g>
    <rect x="180" y="600" width="180" height="60" rx="30" fill="#5EB4E7" opacity="0.2"/>
    <circle cx="230" cy="630" r="20" fill="#5EB4E7"/>
    <circle cx="300" cy="630" r="20" fill="#6A45F0"/>
  </g>
</svg>