<svg width="1200" height="900" viewBox="0 0 1200 900" fill="none" xmlns="http://www.w3.org/2000/svg">
  <defs>
    <linearGradient id="bg" x1="120" y1="100" x2="1080" y2="820" gradientUnits="userSpaceOnUse">
      <stop stop-color="#D7E0EA"/>
      <stop offset="0.55" stop-color="#EEF4F9"/>
      <stop offset="1" stop-color="#FFFDFD"/>
    </linearGradient>
    <linearGradient id="skin" x1="280" y1="320" x2="420" y2="660" gradientUnits="userSpaceOnUse">
      <stop stop-color="#F6D1B6"/>
      <stop offset="0.55" stop-color="#E7B08A"/>
      <stop offset="1" stop-color="#CB8C68"/>
    </linearGradient>
    <linearGradient id="skin-2" x1="840" y1="380" x2="980" y2="640" gradientUnits="userSpaceOnUse">
      <stop stop-color="#F3C7AA"/>
      <stop offset="0.6" stop-color="#E1A77F"/>
      <stop offset="1" stop-color="#C4845F"/>
    </linearGradient>
    <linearGradient id="hair" x1="300" y1="300" x2="380" y2="420" gradientUnits="userSpaceOnUse">
      <stop stop-color="#3B2E28"/>
      <stop offset="1" stop-color="#1F1715"/>
    </linearGradient>
    <filter id="shadow" x="0" y="0" width="1200" height="900" filterUnits="userSpaceOnUse">
      <feDropShadow dx="0" dy="18" stdDeviation="24" flood-color="#223C4D" flood-opacity="0.14"/>
    </filter>
  </defs>
  <rect width="1200" height="900" rx="48" fill="url(#bg)"/>
  <rect x="122" y="122" width="960" height="668" rx="56" fill="#FFFFFF" opacity="0.2" filter="url(#shadow)"/>

  <g>
    <circle cx="330" cy="360" r="58" fill="url(#hair)"/>
    <circle cx="330" cy="376" r="44" fill="url(#skin)"/>
    <rect x="282" y="426" width="96" height="178" rx="34" fill="#CFE0EA"/>
    <rect x="254" y="452" width="44" height="120" rx="22" fill="url(#skin)"/>
    <rect x="362" y="452" width="44" height="120" rx="22" fill="url(#skin)"/>
    <path d="M314 396C322 390 338 390 346 396" stroke="#2B1C15" stroke-width="6" stroke-linecap="round"/>
    <path d="M316 414C326 424 334 424 344 414" stroke="#2B1C15" stroke-width="6" stroke-linecap="round"/>
  </g>

  <g>
    <rect x="520" y="280" width="320" height="320" rx="42" fill="#F5F1EB"/>
    <rect x="552" y="316" width="220" height="18" rx="9" fill="#D1C5B7"/>
    <rect x="552" y="352" width="240" height="18" rx="9" fill="#D1C5B7"/>
    <rect x="552" y="388" width="196" height="18" rx="9" fill="#D1C5B7"/>
    <path d="M564 510L626 396L682 472L742 352L804 488" stroke="#6A45F0" stroke-width="16" stroke-linecap="round" stroke-linejoin="round"/>
    <circle cx="804" cy="488" r="12" fill="#6A45F0"/>
  </g>

  <g>
    <circle cx="910" cy="360" r="44" fill="#6CB36D"/>
    <circle cx="874" cy="392" r="32" fill="#9CC7A4"/>
    <rect x="868" y="426" width="92" height="130" rx="30" fill="#F4D7C6"/>
    <rect x="846" y="452" width="44" height="100" rx="22" fill="url(#skin-2)"/>
    <rect x="938" y="452" width="44" height="100" rx="22" fill="url(#skin-2)"/>
  </g>

  <path d="M190 620C260 560 338 536 420 542C502 548 570 586 602 650" stroke="#9CC7A4" stroke-width="18" stroke-linecap="round"/>
</svg>