<svg width="1200" height="900" viewBox="0 0 1200 900" fill="none" xmlns="http://www.w3.org/2000/svg">
  <defs>
    <linearGradient id="bg" x1="110" y1="120" x2="1070" y2="820" gradientUnits="userSpaceOnUse">
      <stop stop-color="#D7D6E7"/>
      <stop offset="0.52" stop-color="#F2EEFF"/>
      <stop offset="1" stop-color="#FFFDFD"/>
    </linearGradient>
    <filter id="shadow" x="0" y="0" width="1200" height="900" filterUnits="userSpaceOnUse">
      <feDropShadow dx="0" dy="18" stdDeviation="24" flood-color="#2C1E5A" flood-opacity="0.16"/>
    </filter>
  </defs>
  <rect width="1200" height="900" rx="48" fill="url(#bg)"/>
  <rect x="114" y="112" width="972" height="700" rx="48" fill="#FFFFFF" opacity="0.24" filter="url(#shadow)"/>
  <path d="M194 590C240 474 330 400 448 382C566 364 676 414 744 510" stroke="#6A45F0" stroke-width="26" stroke-linecap="round" opacity="0.18"/>
  <circle cx="430" cy="504" r="120" fill="#E2C8B8"/>
  <rect x="374" y="404" width="124" height="184" rx="44" fill="#332B43"/>
  <rect x="360" y="376" width="148" height="152" rx="66" fill="#2E2A36"/>
  <rect x="344" y="470" width="196" height="260" rx="54" fill="#F4D6BE"/>
  <rect x="304" y="448" width="264" height="320" rx="84" fill="#CAB2A4" opacity="0.18"/>
  <circle cx="430" cy="502" r="42" fill="#F7D8C4"/>
  <path d="M408 506C418 492 444 492 454 506" stroke="#332B43" stroke-width="8" stroke-linecap="round"/>
  <path d="M452 530C440 546 420 546 408 530" stroke="#332B43" stroke-width="8" stroke-linecap="round"/>
  <rect x="636" y="294" width="296" height="390" rx="42" fill="#F8F5FF" opacity="0.9"/>
  <circle cx="780" cy="454" r="70" fill="#6A45F0" opacity="0.12">
    <animate attributeName="r" values="70;82;70" dur="5s" repeatCount="indefinite"/>
  </circle>
  <circle cx="780" cy="454" r="36" fill="#6A45F0" opacity="0.92"/>
  <path d="M748 454H812" stroke="white" stroke-width="10" stroke-linecap="round"/>
  <path d="M780 422V486" stroke="white" stroke-width="10" stroke-linecap="round"/>
  <path d="M688 592C726 558 764 544 818 548C870 552 912 572 944 614" stroke="#D6CAE8" stroke-width="16" stroke-linecap="round"/>
  <circle cx="928" cy="230" r="20" fill="#6A45F0">
    <animate attributeName="cx" values="928;912;928" dur="4.8s" repeatCount="indefinite"/>
  </circle>
</svg>