<svg width="1200" height="900" viewBox="0 0 1200 900" fill="none" xmlns="http://www.w3.org/2000/svg">
  <defs>
    <linearGradient id="bg" x1="120" y1="100" x2="1080" y2="820" gradientUnits="userSpaceOnUse">
      <stop stop-color="#D8D0BF"/>
      <stop offset="0.5" stop-color="#F5EFE5"/>
      <stop offset="1" stop-color="#FFFDF9"/>
    </linearGradient>
    <filter id="shadow" x="0" y="0" width="1200" height="900" filterUnits="userSpaceOnUse">
      <feDropShadow dx="0" dy="18" stdDeviation="24" flood-color="#4B3728" flood-opacity="0.14"/>
    </filter>
  </defs>
  <rect width="1200" height="900" rx="48" fill="url(#bg)"/>
  <rect x="120" y="114" width="964" height="680" rx="48" fill="#FFFFFF" opacity="0.2" filter="url(#shadow)"/>
  <rect x="708" y="238" width="204" height="452" rx="40" fill="#E7D9CB"/>
  <circle cx="810" cy="414" r="84" fill="#B08B72"/>
  <circle cx="810" cy="398" r="52" fill="#F0CAB0"/>
  <path d="M770 402C784 384 796 376 810 376C824 376 838 384 852 402" stroke="#4B3728" stroke-width="8" stroke-linecap="round"/>
  <path d="M776 438C792 452 828 452 844 438" stroke="#4B3728" stroke-width="8" stroke-linecap="round"/>
  <rect x="758" y="480" width="104" height="132" rx="36" fill="#D6B79B"/>
  <rect x="248" y="282" width="314" height="332" rx="40" fill="#F7F1E7"/>
  <rect x="278" y="318" width="120" height="18" rx="9" fill="#CDBEA9"/>
  <rect x="278" y="352" width="202" height="18" rx="9" fill="#CDBEA9"/>
  <rect x="278" y="398" width="170" height="18" rx="9" fill="#CDBEA9"/>
  <rect x="278" y="456" width="146" height="18" rx="9" fill="#CDBEA9"/>
  <circle cx="366" cy="560" r="54" fill="#6A45F0" opacity="0.14">
    <animate attributeName="r" values="54;66;54" dur="5.5s" repeatCount="indefinite"/>
  </circle>
  <circle cx="366" cy="560" r="30" fill="#6A45F0"/>
  <path d="M350 560H382" stroke="white" stroke-width="10" stroke-linecap="round"/>
  <path d="M366 544V576" stroke="white" stroke-width="10" stroke-linecap="round"/>
</svg>